<svg xmlns="http://www.w3.org/2000/svg" xmlns:xlink="http://www.w3.org/1999/xlink" version="1.1" x="0px" y="0px" viewBox="0 0 512 640" style="enable-background:new 0 0 512 512;" xml:space="preserve"><title>ProductDesign-design-3ddesign-creation-product</title><path d="M472,16H40c-13.2,0-24,10.8-24,24v336c0,13.2,10.8,24,24,24h157.8l-20,80H136v16h240v-16h-41.8l-20-80H472  c13.2,0,24-10.8,24-24V40C496,26.8,485.2,16,472,16z M40,32h432c4.4,0,8,3.6,8,8v8H32v-8C32,35.6,35.6,32,40,32z M88,208H32V64h56  V208z M88,224v96H32v-96H88z M104,64h304v256H104V64z M424,256h56v64h-56V256z M424,240v-80h56v80H424z M424,144V64h56v80H424z   M317.8,480H194.2l20-80h83.5L317.8,480z M472,384H40c-4.4,0-8-3.6-8-8v-40h448v40C480,380.4,476.4,384,472,384z"/><path d="M352,238.5v-93c0-8.8-4.8-16.9-12.5-21.1l-72-39.3c-7.2-3.9-15.8-3.9-23,0l-72,39.3c-7.7,4.2-12.5,12.3-12.5,21.1v93  c0,8.8,4.8,16.9,12.5,21.1l72,39.3c7.2,3.9,15.8,3.9,23,0l72-39.3C347.2,255.4,352,247.3,352,238.5z M252.2,99.2  c2.4-1.3,5.3-1.3,7.7,0l67.5,36.8L256,174.9L184.7,136L252.2,99.2z M180.2,245.5c-2.6-1.4-4.2-4.1-4.2-7v-89l72,39.3v93.8  L180.2,245.5z M331.8,245.5l-67.8,37v-93.8l72-39.3v89C336,241.4,334.4,244.1,331.8,245.5L331.8,245.5z"/><polygon points="376,256 360,256 360,272 344,272 344,288 360,288 360,304 376,304 376,288 392,288 392,272 376,272 "/><rect x="440" y="80" width="24" height="16"/><rect x="440" y="112" width="24" height="16"/><rect x="440" y="176" width="24" height="16"/><rect x="440" y="208" width="24" height="16"/><rect x="440" y="280" width="24" height="16"/><rect x="376" y="80" width="16" height="16"/><rect x="344" y="80" width="16" height="16"/><rect x="48" y="88" width="24" height="16"/><rect x="48" y="128" width="24" height="16"/><rect x="48" y="168" width="24" height="16"/><rect x="48" y="248" width="24" height="16"/><rect x="48" y="280" width="24" height="16"/><polygon points="120,96 128,96 128,288 120,288 120,304 152,304 152,288 144,288 144,96 152,96 152,80 120,80 "/><text x="0" y="527" fill="#000000" font-size="5px" font-weight="bold" font-family="'Helvetica Neue', Helvetica, Arial-Unicode, Arial, Sans-serif">Created by WiStudio</text><text x="0" y="532" fill="#000000" font-size="5px" font-weight="bold" font-family="'Helvetica Neue', Helvetica, Arial-Unicode, Arial, Sans-serif">from the Noun Project</text></svg>